<?xml version="1.0" encoding="utf-8"?>
<!-- Generated by IcoMoon.io -->
<!DOCTYPE svg PUBLIC "-//W3C//DTD SVG 1.1//EN" "http://www.w3.org/Graphics/SVG/1.1/DTD/svg11.dtd">
<svg version="1.1" xmlns="http://www.w3.org/2000/svg" xmlns:xlink="http://www.w3.org/1999/xlink" width="32" height="32" viewBox="0 0 32 32">
<g>
</g>
	<path d="M20.023 29.233v2.744l-3.991-4.714 3.991-4.811v2.845c8.25 0.194 11.976-7.264 9.876-11.069 5.184 5.603 0.003 15.262-9.876 15.004z" fill="#000000" />
	<path d="M11.952 2.723v-2.744l3.991 4.714-3.991 4.811v-2.845c-8.25-0.193-11.976 7.264-9.876 11.069-5.184-5.603-0.003-15.262 9.876-15.004z" fill="#000000" />
	<path d="M9.676 10.648h2.521l3.772 10.661h-2.416l-0.703-2.192h-3.926l-0.723 2.192h-2.33l3.806-10.661zM9.529 17.28h2.73l-1.346-4.195-1.384 4.195z" fill="#000000" />
	<path d="M25.276 11.783c0.326 0.453 0.489 0.996 0.489 1.627 0 0.651-0.165 1.174-0.494 1.569-0.184 0.222-0.455 0.424-0.813 0.608 0.544 0.198 0.955 0.511 1.231 0.94 0.277 0.429 0.415 0.95 0.415 1.562 0 0.632-0.158 1.198-0.475 1.7-0.201 0.333-0.453 0.612-0.755 0.839-0.341 0.26-0.742 0.439-1.205 0.535-0.462 0.096-0.964 0.145-1.506 0.145h-4.804v-10.661h5.152c1.3 0.019 2.221 0.398 2.763 1.136zM19.487 12.499v2.351h2.591c0.463 0 0.838-0.088 1.128-0.264 0.288-0.176 0.433-0.488 0.433-0.937 0-0.497-0.191-0.825-0.573-0.984-0.329-0.111-0.749-0.166-1.26-0.166h-2.319zM19.487 16.615v2.843h2.588c0.462 0 0.822-0.063 1.080-0.188 0.467-0.231 0.7-0.675 0.7-1.331 0-0.554-0.227-0.935-0.679-1.143-0.253-0.116-0.608-0.176-1.065-0.181h-2.624z" fill="#000000" />
</svg>
